# Leez Beans Mod - lightweight bean plant source mesh
# Original project mesh; units meters; Y-up; origin at soil level.
mtllib leez_bean_plant.mtl
o LeezBeanPlant
v -0.01800 0.00000 -0.01800
v 0.01800 0.00000 -0.01800
v 0.01800 0.00000 0.01800
v -0.01800 0.00000 0.01800
v -0.00500 0.32000 -0.01000
v 0.02500 0.32000 -0.01000
v 0.02500 0.32000 0.02000
v -0.00500 0.32000 0.02000
v -0.00500 0.32000 -0.01000
v 0.02500 0.32000 -0.01000
v 0.02500 0.32000 0.02000
v -0.00500 0.32000 0.02000
v -0.01700 0.62000 -0.01100
v 0.00500 0.62000 -0.01100
v 0.00500 0.62000 0.01100
v -0.01700 0.62000 0.01100
v -0.01700 0.62000 -0.01100
v 0.00500 0.62000 -0.01100
v 0.00500 0.62000 0.01100
v -0.01700 0.62000 0.01100
v 0.00400 0.92000 0.00000
v 0.01600 0.92000 0.00000
v 0.01600 0.92000 0.01200
v 0.00400 0.92000 0.01200
v -0.00700 0.43000 -0.00700
v 0.00700 0.43000 -0.00700
v 0.00700 0.43000 0.00700
v -0.00700 0.43000 0.00700
v -0.27400 0.57000 0.06600
v -0.26600 0.57000 0.06600
v -0.26600 0.57000 0.07400
v -0.27400 0.57000 0.07400
v -0.00700 0.52000 -0.00700
v 0.00700 0.52000 -0.00700
v 0.00700 0.52000 0.00700
v -0.00700 0.52000 0.00700
v 0.27600 0.64000 -0.08400
v 0.28400 0.64000 -0.08400
v 0.28400 0.64000 -0.07600
v 0.27600 0.64000 -0.07600
v -0.00700 0.67000 -0.00700
v 0.00700 0.67000 -0.00700
v 0.00700 0.67000 0.00700
v -0.00700 0.67000 0.00700
v -0.25400 0.78000 -0.10400
v -0.24600 0.78000 -0.10400
v -0.24600 0.78000 -0.09600
v -0.25400 0.78000 -0.09600
v -0.00700 0.72000 -0.00700
v 0.00700 0.72000 -0.00700
v 0.00700 0.72000 0.00700
v -0.00700 0.72000 0.00700
v 0.23600 0.83000 0.10600
v 0.24400 0.83000 0.10600
v 0.24400 0.83000 0.11400
v 0.23600 0.83000 0.11400
v -0.16410 0.57000 0.04882
v -0.28294 0.57600 0.00528
v -0.39944 0.58200 0.09589
v -0.25706 0.57600 0.13472
v -0.27000 0.58800 0.07000
v -0.18323 0.57000 0.10384
v -0.14607 0.57600 0.00921
v -0.22049 0.58200 -0.08247
v -0.25393 0.57600 0.03079
v -0.20000 0.58800 0.02000
v 0.17254 0.64000 -0.06925
v 0.28657 0.64600 -0.01433
v 0.41134 0.65200 -0.09313
v 0.27343 0.64600 -0.14567
v 0.28000 0.65800 -0.08000
v 0.18732 0.64000 -0.09455
v 0.14561 0.64600 -0.00184
v 0.21550 0.65200 0.09334
v 0.25439 0.64600 -0.01816
v 0.20000 0.65800 -0.01000
v -0.15734 0.78000 -0.08147
v -0.23813 0.78600 -0.15933
v -0.36326 0.79200 -0.12265
v -0.26187 0.78600 -0.04067
v -0.25000 0.79800 -0.10000
v -0.18404 0.78000 -0.11090
v -0.22944 0.78600 -0.02753
v -0.17506 0.79200 0.06888
v -0.13056 0.78600 -0.03247
v -0.18000 0.79800 -0.03000
v 0.14832 0.83000 0.08708
v 0.22533 0.83600 0.16869
v 0.35205 0.84200 0.13801
v 0.25467 0.83600 0.05131
v 0.24000 0.84800 0.11000
v 0.15596 0.83000 0.07910
v 0.11056 0.83600 0.16247
v 0.16494 0.84200 0.25888
v 0.20944 0.83600 0.15753
v 0.16000 0.84800 0.16000
v 0.03826 0.92000 -0.06991
v -0.03639 0.92600 -0.01127
v -0.02454 0.93200 0.09878
v 0.05639 0.92600 0.02327
v 0.01000 0.93800 0.00600
v -0.02655 0.92000 0.07829
v 0.05417 0.92600 0.02834
v 0.05467 0.93200 -0.08235
v -0.03417 0.92600 -0.01634
v 0.01000 0.93800 0.00600
v -0.06371 0.53400 0.01444
v -0.05629 0.53400 0.04556
v -0.05629 0.56600 0.04556
v -0.06371 0.56600 0.01444
v -0.27371 0.44400 0.06444
v -0.26629 0.44400 0.09556
v -0.26629 0.47600 0.09556
v -0.27371 0.47600 0.06444
v 0.07609 0.59500 -0.00629
v 0.06391 0.59500 -0.03371
v 0.06391 0.62500 -0.03371
v 0.07609 0.62500 -0.00629
v 0.25609 0.50500 -0.08629
v 0.24391 0.50500 -0.11371
v 0.24391 0.53500 -0.11371
v 0.25609 0.53500 -0.08629
v -0.01763 0.69600 -0.01655
v -0.04237 0.69600 -0.00345
v -0.04237 0.72400 -0.00345
v -0.01763 0.72400 -0.01655
v -0.10763 0.60600 -0.18655
v -0.13237 0.60600 -0.17345
v -0.13237 0.63400 -0.17345
v -0.10763 0.63400 -0.18655
usemtl Stem
f 1 2 6 5
f 2 3 7 6
f 3 4 8 7
f 4 1 5 8
f 4 3 2 1
f 5 6 7 8
f 9 10 14 13
f 10 11 15 14
f 11 12 16 15
f 12 9 13 16
f 12 11 10 9
f 13 14 15 16
f 17 18 22 21
f 18 19 23 22
f 19 20 24 23
f 20 17 21 24
f 20 19 18 17
f 21 22 23 24
f 25 26 30 29
f 26 27 31 30
f 27 28 32 31
f 28 25 29 32
f 28 27 26 25
f 29 30 31 32
f 33 34 38 37
f 34 35 39 38
f 35 36 40 39
f 36 33 37 40
f 36 35 34 33
f 37 38 39 40
f 41 42 46 45
f 42 43 47 46
f 43 44 48 47
f 44 41 45 48
f 44 43 42 41
f 45 46 47 48
f 49 50 54 53
f 50 51 55 54
f 51 52 56 55
f 52 49 53 56
f 52 51 50 49
f 53 54 55 56
usemtl Leaf
f 61 57 58
f 61 58 57
f 61 58 59
f 61 59 58
f 61 59 60
f 61 60 59
f 61 60 57
f 61 57 60
f 66 62 63
f 66 63 62
f 66 63 64
f 66 64 63
f 66 64 65
f 66 65 64
f 66 65 62
f 66 62 65
f 71 67 68
f 71 68 67
f 71 68 69
f 71 69 68
f 71 69 70
f 71 70 69
f 71 70 67
f 71 67 70
f 76 72 73
f 76 73 72
f 76 73 74
f 76 74 73
f 76 74 75
f 76 75 74
f 76 75 72
f 76 72 75
f 81 77 78
f 81 78 77
f 81 78 79
f 81 79 78
f 81 79 80
f 81 80 79
f 81 80 77
f 81 77 80
f 86 82 83
f 86 83 82
f 86 83 84
f 86 84 83
f 86 84 85
f 86 85 84
f 86 85 82
f 86 82 85
f 91 87 88
f 91 88 87
f 91 88 89
f 91 89 88
f 91 89 90
f 91 90 89
f 91 90 87
f 91 87 90
f 96 92 93
f 96 93 92
f 96 93 94
f 96 94 93
f 96 94 95
f 96 95 94
f 96 95 92
f 96 92 95
f 101 97 98
f 101 98 97
f 101 98 99
f 101 99 98
f 101 99 100
f 101 100 99
f 101 100 97
f 101 97 100
f 106 102 103
f 106 103 102
f 106 103 104
f 106 104 103
f 106 104 105
f 106 105 104
f 106 105 102
f 106 102 105
usemtl Pod
f 107 108 112 111
f 108 109 113 112
f 109 110 114 113
f 110 107 111 114
f 107 110 109 108
f 111 112 113 114
f 115 116 120 119
f 116 117 121 120
f 117 118 122 121
f 118 115 119 122
f 115 118 117 116
f 119 120 121 122
f 123 124 128 127
f 124 125 129 128
f 125 126 130 129
f 126 123 127 130
f 123 126 125 124
f 127 128 129 130
